<svg version="1.1"
	 xmlns="http://www.w3.org/2000/svg" xmlns:xlink="http://www.w3.org/1999/xlink" xmlns:a="http://ns.adobe.com/AdobeSVGViewerExtensions/3.0/"
	 x="0px" y="0px" xml:space="preserve">
<defs>
<symbol id="component-base">
<path d="M292.9,148.9c6.6,52.6-7.5,88.3-57.7,108c-25.2,9.9-56.8,18.7-87.6,31C70.9,318.2-8.5,232.1,3.1,150.5
	c4.6-32.3,14.9-78.1,44.5-103C90,11.9,110.3-7.8,151.1,7c24.2,8.8,56.9,11.6,77,23.6C287.5,65.8,287.5,105.3,292.9,148.9z"/>
<symbol id="component-1-0">
<path d="M292.9,148.9c6.6,52.6-7.5,88.3-57.7,108c-25.2,9.9-56.8,18.7-87.6,31C70.9,318.2-8.5,232.1,3.1,150.5c4.6-32.3,14.9-78.1,44.5-103C90,11.9,110.3-7.8,151.1,7c24.2,8.8,56.9,11.6,77,23.6C287.5,65.8,287.5,105.3,292.9,148.9z"></path>
<symbol id="component-1-1">
<path d="M161.2,2.2c14.2,1.9,15.1,14.7,32.6,20.3c16.2,5.2,25.8-10.6,34.8,0c10.7,12.4,6.1,16.7,18.2,27.3C261,62.2,273,60.3,279.4,70.2c9.2,14.4-4.3,25.5,3,47c6,17.6,14.7,19.3,14.8,32.6c0.2,13.3-10.6,14.7-15.6,31.8c-6.4,22,7.8,34,0,48.5c-6.9,12.8-17.4,3.7-33.3,19.7c-14.7,14.7-12.4,36.7-27.3,39.4c-16.7,3-21.2-7.6-45.4,0c-13.4,4.2-15.9,8-25.3,6.9c-10.9-1.2-6.5-8.5-19.4-12.2c-23.1-6.8-34.5,5.4-50-4.5c-14.8-9.5-12.3-30.8-29.5-43.2c-13-9.4-19.1-1.3-27.3-10.6c-9.2-10.6,0.8-24-6.1-45.4c-6.7-21.1-16.5-19.8-16-34.8c0.4-12.5,5.4-12.1,11.5-28.8C19.6,99.6,9,88.7,18,72.5c7.6-13.6,16.7-7.6,33.3-24.2c14.5-14.5,17.4-33.1,30-35c13-2,27.2,5.8,46,3C146.5,13.3,146.3,0.2,161.2,2.2z"></path>
<symbol id="component-1-2">
<path d="M161.1,2.6c0,0,15.1,14.6,32.5,20.2c16.1,5.2,34.8,0,34.8,0s6,16.6,18.1,27.2C260.7,62.5,279,70.4,279,70.4s-4.3,25.4,3,46.8c6,17.6,14.8,32.5,14.8,32.5s-10.6,14.6-15.6,31.7c-6.4,21.9,0,48.4,0,48.4s-17.4,3.7-33.2,19.6c-14.6,14.7-27.2,39.3-27.2,39.3s-21.2-7.6-45.3,0c-13.3,4.2-25.2,6.9-25.2,6.9s-6.5-8.4-19.3-12.2c-23-6.8-49.9-4.5-49.9-4.5s-12.3-30.7-29.5-43.1c-13-9.4-27.2-10.6-27.2-10.6s0.8-23.9-6-45.3c-6.7-21.1-16-34.8-16-34.8s5.4-12.1,11.5-28.7c6.1-16.7,4.5-43.8,4.5-43.8s16.6-7.6,33.2-24.2c14.4-14.4,29.9-34.9,29.9-34.9s27.2,5.8,45.9,3C146.4,13.7,161.1,2.6,161.1,2.6z"></path>
<symbol id="component-1-3">
<path d="M161.2,2c20.1,1,32.6,20.3,32.6,20.3s16.6-9.3,34.8,0c18.2,9.2,17.3,24.6,18.2,27.3c0,0,19.8-2,32.6,20.5c12,21,3,47,3,47s14.8,11.5,13.9,33c-0.9,21.5-14.7,31.3-14.7,31.3s5.5,31.2-2.3,45.7c-6.9,12.8-34,22-34,22s-2.7,22.1-18,29c-15.4,7-43,3-43,3s-24.7,15.8-34.1,14.8c-10.9-1.2-27.9-14.8-27.9-14.8s-24.9,6.2-41.4-2c-26.6-13-29.5-43.2-29.5-43.2s-17.3,4.1-27.3-10.6c-17.8-26.3-6.1-45.4-6.1-45.4S1.3,164,2,145c0.4-12.5,11.5-28.8,11.5-28.8S9,88.5,18.1,72.3C25.6,58.6,51.4,48,51.4,48s5-28,30-35c21.6-6.1,46,3,46,3S146.2,1.3,161.2,2z"></path>
<symbol id="component-3-0">
<path d="M124.3,16c-14.4,5.1-29.3,7.1-44.3,10c0,0.1,0,0.2,0,0.3c-0.2,0.5-0.8,0.8-1.4,0.8c-1.8,0-3.5,0.2-5.2,0.3L71.1,28c-0.8,0.2-1.5,0.4-2.3,0.6c-1.5,0.4-3,0.9-4.4,1.4c1.2-0.4,2.4-0.7,3.6-1c1.2-0.3,2.4-0.6,3.6-0.8c0.7-0.2,1.4,0.1,1.5,0.6c0.1,0.5-0.4,1-1.2,1.2c-1.6,0.4-3.2,0.9-4.8,1.4c-1.6,0.5-3.2,1.1-4.8,1.6c-3.2,1.1-6.4,2-9.4,2.3c-1.7,0.9-3.2,1.9-4.7,2.9c-0.8,0.5-1.5,1-2.2,1.6c-0.7,0.5-1.4,1.1-2.1,1.6c-2.8,2.3-5.2,4.8-7.4,7.5c-4.4,5.4-7.5,11.4-9,17.5c0,0.3-0.2,0.5-0.4,0.5c-0.2,0.1-0.4-0.1-0.4-0.3c0.9-6.7,4-13.8,8.9-20c2.4-3.1,5.3-6.1,8.5-8.6c1.6-1.3,3.4-2.5,5.2-3.6c1.8-1.2,3.7-2.2,5.6-3.2c0.9-0.5,1.9-0.9,2.9-1.3c-3,0.6-6,1.5-9.1,2.6c-0.1,0.4-0.5,0.9-1,1.2c-1.2,0.9-2.5,1.7-3.7,2.6c0.1,0,0.2,0.1,0.2,0.2c0.2,0.4-0.1,0.9-0.6,1.3c-3.1,2-6,4.2-8.8,6.6c-0.1,0.1-0.1,0.1-0.2,0.2c-6.4,6.5-11.7,14-15.3,21.9c-3.6,7.9-5.3,16.4-4.5,24.2c0.2,0.2,0.2,0.5,0,0.7c-0.1,0.2-0.4,0.2-0.5,0c-0.2,0-0.4,0.1-0.4,0c-2.3-5.8-3.2-12.6-1.1-19.7c0.7-2.4,1.6-4.8,2.7-7.1c-1.6,2.1-3.3,4.1-4.9,6c-1.1,3.3-1.8,6.6-2.3,10c-0.5,3.3-0.8,6.7-1.2,10L7,89.9c0,0.6-0.2,1.1-0.6,1.2c-0.4,0.1-0.7-0.4-0.8-1c-1.3-6.3-1-13.1,0.8-19.6c1.7-6.5,4.7-12.7,8.5-18.3c3.8-5.6,8.4-10.7,13.4-15.3c2.5-2.3,5.2-4.4,8-6.4c1.4-1,2.8-2,4.3-2.9l4.3-2.7c4.7-2.7,9.4-5.1,14.4-7l1.8-0.7l1.9-0.7l3.7-1.3c2.5-0.7,5-1.5,7.6-2.1c1.5-0.4,2.9,0,3.1,0.9c0.2,0.9-0.8,2-2.3,2.4c-9.8,2.7-19.1,6.7-28,11.8c-1.9,1.2-3.9,2.3-5.7,3.5c-1.9,1.2-3.7,2.5-5.4,3.9c2.9-1.9,6-3.5,9.3-4.7c2.2-1.5,4.5-2.7,6.9-3.9c1.2-0.6,2.4-1.1,3.7-1.6c1.2-0.5,2.5-1,3.8-1.5c6.1-2.2,12.2-3.6,18.3-4.9c6.1-1.4,12.2-2.8,18.4-4.9c12.1-4,20.8-10.1,32.1-14.1c0.5-0.2,1.1-0.1,1.3,0.1c0.3,0.3,0.1,0.7-0.4,0.9c-10.8,4.7-20.6,9.9-32.1,14.5c-6.1,2.5-12.2,4.2-18.3,5.7c-6.1,1.6-12.3,3-18.5,5.1c-0.8,0.3-1.7,0.5-2.5,0.9c1.4-0.3,2.9-0.5,4.3-0.7l2.1-0.3c0.7-0.1,1.4-0.1,2.1-0.2c10.4-3.2,21-4.5,31.8-6.7c8.4-1.7,16.4-4.4,24.9-5.7c1.1-0.3,2.1,0,2.4,0.7C126,15,125.4,15.8,124.3,16z M21.4,51.5c0.9-1.7,1.9-3.4,3.1-5c-5,5.7-9.3,12-12.4,19C15.1,60.8,18.2,56,21.4,51.5z"></path>
<symbol id="component-3-1">
<path d="M118,90.3c-0.4-6.6-1.7-12.7-3.9-18.9c-2.2-6.2-5.3-12.4-9.3-18.3c-0.1,0.1-0.2,0.1-0.3,0.1c-0.5,0.1-1-0.3-1.3-0.9c-0.7-1.5-1.4-2.9-2.3-4.4c-1.9-2.3-4-4.5-6.2-6.5c1.7,1.7,3.4,3.4,4.8,5.3c0.5,0.5,0.5,1.2,0.1,1.5c-0.4,0.3-1.1,0.1-1.6-0.4c-2-2.3-4.5-4.6-6.9-6.7c-2.4-2.2-4.7-4.3-6.6-6.7C78.2,30.7,71.1,28.4,64,27c-7.1-1.4-14.3-1.7-21.5-1.4c-0.3,0-0.6-0.1-0.7-0.2c-0.1-0.2,0-0.4,0.2-0.4c7.6-1.1,15.6-1.2,23.7,0.2c8.1,1.3,16.2,4.1,23.6,8.4c0.9,0.5,1.8,1.1,2.6,1.7c-2.1-2.2-4.3-4.4-7-6.3c-0.4,0.1-1,0-1.6-0.2c-1.4-0.6-2.8-1.1-4.2-1.7c0,0.1,0,0.2,0,0.3c-0.2,0.4-0.8,0.4-1.4,0.1c-3.4-1.6-6.9-2.9-10.4-4.3c-0.1,0-0.2-0.1-0.2-0.1c-18.1-4.9-36.7-6.8-55.8-8.8c-0.3,0.1-0.7,0-0.8-0.2c-0.2-0.2-0.1-0.4,0.1-0.5c0-0.2,0-0.4,0.1-0.4c7.3-0.8,14.2-1.6,21.8-0.8c2.6,0.3,5.2,0.6,7.8,1c-2.6-1-5-2.1-7.1-3.4C26.5,9,19.5,8.6,13.1,6.7L13.3,7c-0.6-0.1-1.1-0.4-1.1-0.8c0-0.4,0.5-0.6,1.1-0.6C26,5.4,38.8,6.5,51.5,9.2c12.7,2.7,25.5,6.8,37.6,13c9.8,4.8,18.4,11.9,25.2,20.5c1,1.3,1.3,2.8,0.5,3.3c-0.8,0.5-2.1,0-3.2-1.2c-6.7-8-15-14.2-24.1-18.9c-2-1-4-2-6.1-2.9l-3.1-1.3l-3.1-1.2c3.1,1.5,6.1,3.3,8.9,5.3c4.8,2.2,9.4,5,13.5,8.5c4.9,4.2,9,9,12.7,14c3.7,5,7,10.3,10.3,16c3.2,5.6,6.1,10.8,8.2,16.6c2,5.8,3.3,12.3,2.1,19.5c-0.1,0.6-0.4,1.3-0.8,1.4c-0.4,0.1-0.6-0.2-0.5-0.9c0.4-3.4,0.3-6.8,0-10c-0.4-3.2-1.1-6.3-2.1-9.2c-2-5.8-4.8-11.1-8.1-16.2c-3.6-5.4-7-10.4-10.8-15.3c-3.8-4.9-7.9-9.6-12.7-13.9c-0.7-0.6-1.3-1.1-2-1.7c1.9,2.2,3.7,4.5,5.2,6.8c3.8,3.7,7,7.9,9.7,12.3c2.7,4.4,5.1,9,7,13.7c1.5,3.7,2.9,7.3,3.8,11.1c0.9,3.8,1.3,7.7,0.7,11.7c0,1-0.7,1.9-1.4,1.9C118.5,92,118,91.2,118,90.3z M54.7,14.8c2,0.1,3.9,0.4,5.8,0.7c-7.3-2-14.7-3.5-22.2-4.8C43.6,12.5,49.2,13.7,54.7,14.8z"></path>
<symbol id="component-3-2">
<path d="M17.5,11.5c0.4,6.6,1.7,12.7,3.9,18.9c2.2,6.2,5.3,12.4,9.3,18.3c0.1-0.1,0.2-0.1,0.3-0.1c0.5-0.1,1,0.3,1.3,0.9c0.7,1.5,1.4,2.9,2.3,4.4c1.9,2.3,4,4.5,6.2,6.5c-1.7-1.7-3.4-3.4-4.8-5.3c-0.5-0.5-0.5-1.2-0.1-1.5c0.4-0.3,1.1-0.1,1.6,0.4c2,2.3,4.5,4.6,6.9,6.7c2.4,2.2,4.7,4.3,6.6,6.7c6.5,3.5,13.6,5.9,20.7,7.2c7.1,1.4,14.3,1.7,21.5,1.4c0.3,0,0.6,0.1,0.7,0.2c0.1,0.2,0,0.4-0.2,0.4C86,77.9,77.9,78,69.8,76.7c-8.1-1.3-16.2-4.1-23.6-8.4c-0.9-0.5-1.8-1.1-2.6-1.7c2.1,2.2,4.3,4.4,7,6.3c0.4-0.1,1,0,1.6,0.2c1.4,0.6,2.8,1.1,4.2,1.7c0-0.1,0-0.2,0-0.3c0.2-0.4,0.8-0.4,1.4-0.1c3.4,1.6,6.9,2.9,10.4,4.3c0.1,0,0.2,0.1,0.2,0.1c18.1,4.9,36.7,6.8,55.8,8.8c0.3-0.1,0.7,0,0.8,0.2c0.2,0.2,0.1,0.4-0.1,0.5c0,0.2,0,0.4-0.1,0.4c-7.3,0.8-14.2,1.6-21.8,0.8c-2.6-0.3-5.2-0.6-7.8-1c2.6,1,5,2.1,7.1,3.4c6.8,0.9,13.7,1.3,20.2,3.3l-0.2-0.3c0.6,0.1,1.1,0.4,1.1,0.8c0,0.4-0.5,0.6-1.1,0.6c-12.6,0.3-25.4-0.9-38.1-3.5c-12.7-2.7-25.5-6.8-37.6-13C36.6,74.8,28,67.7,21.2,59.1c-1-1.3-1.3-2.8-0.5-3.3c0.8-0.5,2.1,0,3.2,1.2c6.7,8,15,14.2,24.1,18.9c2,1,4,2,6.1,2.9l3.1,1.3l3.1,1.2c-3.1-1.5-6.1-3.3-8.9-5.3c-4.8-2.2-9.4-5-13.5-8.5c-4.9-4.2-9-9-12.7-14c-3.7-5-7-10.3-10.3-16c-3.2-5.6-6.1-10.8-8.2-16.6c-2-5.8-3.3-12.3-2.1-19.5C4.6,0.8,4.9,0.1,5.3,0c0.4-0.1,0.6,0.2,0.5,0.9c-0.4,3.4-0.3,6.8,0,10c0.4,3.2,1.1,6.3,2.1,9.2c2,5.8,4.8,11.1,8.1,16.2c3.6,5.4,7,10.4,10.8,15.3c3.8,4.9,7.9,9.6,12.7,13.9c0.7,0.6,1.3,1.1,2,1.7c-1.9-2.2-3.7-4.5-5.2-6.8c-3.8-3.7-7-7.9-9.7-12.3c-2.7-4.4-5.1-9-7-13.7c-1.5-3.7-2.9-7.3-3.8-11.1c-0.9-3.8-1.3-7.7-0.7-11.7c0-1,0.7-1.9,1.4-1.9C17.1,9.8,17.6,10.6,17.5,11.5z M80.9,86.9c-2-0.1-3.9-0.4-5.8-0.7c7.3,2,14.7,3.5,22.2,4.8C92,89.3,86.4,88.1,80.9,86.9z"></path>
<symbol id="component-3-3">
<path d="M6.7,87.9c14.4-5.1,29.3-7.1,44.3-10c0-0.1,0-0.2,0-0.3c0.2-0.5,0.8-0.8,1.4-0.8c1.8,0,3.5-0.2,5.2-0.3l2.3-0.5c0.8-0.2,1.5-0.4,2.3-0.6c1.5-0.4,3-0.9,4.4-1.4c-1.2,0.4-2.4,0.7-3.6,1c-1.2,0.3-2.4,0.6-3.6,0.8c-0.7,0.2-1.4-0.1-1.5-0.6c-0.1-0.5,0.4-1,1.2-1.2c1.6-0.4,3.2-0.9,4.8-1.4c1.6-0.5,3.2-1.1,4.8-1.6c3.2-1.1,6.4-2,9.4-2.3c1.7-0.9,3.2-1.9,4.7-2.9c0.8-0.5,1.5-1,2.2-1.6c0.7-0.5,1.4-1.1,2.1-1.6c2.8-2.3,5.2-4.8,7.4-7.5c4.4-5.4,7.5-11.4,9-17.5c0-0.3,0.2-0.5,0.4-0.5c0.2-0.1,0.4,0.1,0.4,0.3c-0.9,6.7-4,13.8-8.9,20c-2.4,3.1-5.3,6.1-8.5,8.6c-1.6,1.3-3.4,2.5-5.2,3.6C80.2,71,78.3,72,76.4,73c-0.9,0.5-1.9,0.9-2.9,1.3c3-0.6,6-1.5,9.1-2.6c0.1-0.4,0.5-0.9,1-1.2c1.2-0.9,2.5-1.7,3.7-2.6c-0.1,0-0.2-0.1-0.2-0.2c-0.2-0.4,0.1-0.9,0.6-1.3c3.1-2,6-4.2,8.8-6.6c0.1-0.1,0.1-0.1,0.2-0.2c6.4-6.5,11.7-14,15.3-21.9c3.6-7.9,5.3-16.4,4.5-24.2c-0.2-0.2-0.2-0.5,0-0.7c0.1-0.2,0.4-0.2,0.5,0c0.2,0,0.4-0.1,0.4,0c2.3,5.8,3.2,12.6,1.1,19.7c-0.7,2.4-1.6,4.8-2.7,7.1c1.6-2.1,3.3-4.1,4.9-6c1.1-3.3,1.8-6.6,2.3-10c0.5-3.3,0.8-6.7,1.2-10L124,14c0-0.6,0.2-1.1,0.6-1.2c0.4-0.1,0.7,0.4,0.8,1c1.3,6.3,1,13.1-0.8,19.6c-1.7,6.5-4.7,12.7-8.5,18.3c-3.8,5.6-8.4,10.7-13.4,15.3c-2.5,2.3-5.2,4.4-8,6.4c-1.4,1-2.8,2-4.3,2.9L86.1,79c-4.7,2.7-9.4,5.1-14.4,7l-1.8,0.7L68,87.3l-3.7,1.3c-2.5,0.7-5,1.5-7.6,2.1c-1.5,0.4-2.9,0-3.1-0.9c-0.2-0.9,0.8-2,2.3-2.4c9.8-2.7,19.1-6.7,28-11.8c1.9-1.2,3.9-2.3,5.7-3.5c1.9-1.2,3.7-2.5,5.4-3.9c-2.9,1.9-6,3.5-9.3,4.7c-2.2,1.5-4.5,2.7-6.9,3.9c-1.2,0.6-2.4,1.1-3.7,1.6c-1.2,0.5-2.5,1-3.8,1.5c-6.1,2.2-12.2,3.6-18.3,4.9c-6.1,1.4-12.2,2.8-18.4,4.9c-12.1,4-20.8,10.1-32.1,14.1c-0.5,0.2-1.1,0.1-1.3-0.1c-0.3-0.3-0.1-0.7,0.4-0.9c10.8-4.7,20.6-9.9,32.1-14.5c6.1-2.5,12.2-4.2,18.3-5.7c6.1-1.6,12.3-3,18.5-5.1c0.8-0.3,1.7-0.5,2.5-0.9c-1.4,0.3-2.9,0.5-4.3,0.7l-2.1,0.3c-0.7,0.1-1.4,0.1-2.1,0.2c-10.4,3.2-21,4.5-31.8,6.7c-8.4,1.7-16.4,4.4-24.9,5.7c-1.1,0.3-2.1,0-2.4-0.7C5.1,88.9,5.7,88.1,6.7,87.9z M109.6,52.4c-0.9,1.7-1.9,3.4-3.1,5c5-5.7,9.3-12,12.4-19C116,43.1,112.9,47.9,109.6,52.4z"></path>
<symbol id="component-4-0">
<g>
        <path d="M35.2,29.5c1.4,0.3,2.6,0.8,3.7,1.5c1.1,0.7,2,1.4,2.9,2.3c0.9,0.9,1.6,1.8,2.3,2.9c0.6,1.1,1.2,2.2,1.5,3.7c-1.4-0.3-2.6-0.8-3.7-1.5c-1.1-0.7-2-1.4-2.9-2.3c-0.9-0.9-1.6-1.8-2.3-2.9C36,32.1,35.5,31,35.2,29.5z"/>
		<path d="M0,122.4c1.2-0.9,2.4-1.3,3.6-1.7c1.2-0.3,2.4-0.5,3.6-0.5c1.2,0,2.4,0.1,3.7,0.3c1.2,0.3,2.5,0.7,3.7,1.5
			c-1.2,0.9-2.4,1.3-3.6,1.7c-1.2,0.3-2.4,0.5-3.6,0.5c-1.2,0-2.4-0.1-3.7-0.3C2.5,123.6,1.2,123.2,0,122.4z"/>
		<path d="M196.7,191c1.4,0.3,2.6,0.8,3.7,1.5c1.1,0.7,2,1.4,2.9,2.3c0.9,0.9,1.6,1.8,2.3,2.9c0.6,1.1,1.2,2.2,1.5,3.7
			c-1.4-0.3-2.6-0.8-3.7-1.5c-1.1-0.7-2-1.4-2.9-2.3c-0.9-0.9-1.6-1.8-2.3-2.9C197.5,193.6,197,192.5,196.7,191z"/>
		<path d="M243.2,106.5c-1.2,0.9-2.4,1.3-3.6,1.7c-1.2,0.3-2.4,0.5-3.6,0.5c-1.2,0-2.4-0.1-3.7-0.3
			c-1.2-0.3-2.5-0.7-3.7-1.5c1.2-0.9,2.4-1.3,3.6-1.7c1.2-0.3,2.4-0.5,3.6-0.5c1.2,0,2.4,0.1,3.7,0.3
			C240.7,105.3,242,105.7,243.2,106.5z"/>
		<path d="M187.1,31.2c0.2-1.5,0.8-2.6,1.4-3.7c0.6-1.1,1.4-2.1,2.2-2.9c0.8-0.9,1.8-1.7,2.8-2.4
			c1.1-0.7,2.2-1.3,3.6-1.6c-0.2,1.5-0.8,2.6-1.4,3.7c-0.6,1.1-1.4,2.1-2.2,2.9c-0.8,0.9-1.8,1.7-2.8,2.4
			C189.7,30.3,188.6,30.9,187.1,31.2z"/>
		<path d="M50.9,215.1c0.2-1.5,0.8-2.6,1.4-3.7c0.6-1.1,1.4-2.1,2.2-2.9c0.8-0.9,1.8-1.7,2.8-2.4
			c1.1-0.7,2.2-1.3,3.6-1.6c-0.2,1.5-0.8,2.6-1.4,3.7c-0.6,1.1-1.4,2.1-2.2,2.9c-0.8,0.9-1.8,1.7-2.8,2.4
			C53.5,214.2,52.4,214.8,50.9,215.1z"/>
		<path d="M129.1,229.7c-0.9-1.2-1.3-2.4-1.7-3.6c-0.3-1.2-0.5-2.4-0.5-3.6c0-1.2,0.1-2.4,0.3-3.7
			c0.3-1.2,0.7-2.5,1.5-3.7c0.9,1.2,1.3,2.4,1.7,3.6c0.3,1.2,0.5,2.4,0.5,3.6c0,1.2-0.1,2.4-0.3,3.7
			C130.3,227.3,129.9,228.5,129.1,229.7z"/>
		<path d="M114,14.6c-0.9-1.2-1.3-2.4-1.7-3.6c-0.3-1.2-0.5-2.4-0.5-3.6c0-1.2,0.1-2.4,0.3-3.7c0.3-1.2,0.7-2.5,1.5-3.7
			c0.9,1.2,1.3,2.4,1.7,3.6c0.3,1.2,0.5,2.4,0.5,3.6c0,1.2-0.1,2.4-0.3,3.7C115.2,12.1,114.8,13.3,114,14.6z"/>
</g>
<symbol id="component-4-1">
<g>
		<path d="M172.1,14.7c8.5,6,16.1,13.2,22.5,21.2c-7.4-7.1-15.7-13.1-24.6-17.8L172.1,14.7z"/>
		<path d="M89.8,3.9c-14.2,2.3-28.2,7.5-40.6,15.2C60.9,10.3,74.5,3.7,89,0L89.8,3.9z"/>
		<path d="M9.3,73.7C5.8,82.4,3.4,91.6,2.2,101C1,110.4,1,120,2.2,129.4c-1.9-9.4-2.6-19-2-28.6
			c0.6-9.6,2.4-19.2,5.4-28.5L9.3,73.7z"/>
		<path d="M47.4,199.4c8,6.7,17.1,12.3,26.8,16.6c-10.2-3-20.1-7.5-29.2-13.3L47.4,199.4z"/>
		<path d="M135.1,218.2c14.7-2.5,29.1-8,41.9-16.3c-12,9.4-26.1,16.3-41.1,20.2L135.1,218.2z"/>
		<path d="M215.2,148.5c5-11.7,7.9-24.3,8.6-37.2c0.7,12.9-1,26-4.9,38.6L215.2,148.5z"/>
</g>
<symbol id="component-4-2">
<path d="M84.5,7.5c0,4.1-3.4,7.5-7.5,7.5s-7.5-3.4-7.5-7.5S72.9,0,77,0S84.5,3.4,84.5,7.5z M166,9
	c-4.1,0-7.5,3.4-7.5,7.5s3.4,7.5,7.5,7.5s7.5-3.4,7.5-7.5S170.1,9,166,9z M225,80c-4.1,0-7.5,3.4-7.5,7.5s3.4,7.5,7.5,7.5
	s7.5-3.4,7.5-7.5S229.1,80,225,80z M158,207.5c-2.8,0-5,2.2-5,5s2.2,5,5,5s5-2.2,5-5S160.8,207.5,158,207.5z M68,204.5
	c-2.8,0-5,2.2-5,5s2.2,5,5,5s5-2.2,5-5S70.8,204.5,68,204.5z M10,135.5c-5.5,0-10,4.5-10,10s4.5,10,10,10s10-4.5,10-10
	S15.5,135.5,10,135.5z M20,50.5c-5.5,0-10,4.5-10,10s4.5,10,10,10s10-4.5,10-10S25.5,50.5,20,50.5z M213,155.5c-2.8,0-5,2.2-5,5
	s2.2,5,5,5s5-2.2,5-5S215.8,155.5,213,155.5z"/>
<symbol id="component-4-3">
<path class="st0" d="M225.2,114.3c6.6,61.2-41,90.5-111.5,111.5c-59,17.6-115.5-77-111.5-111.5C9.3,53.1,52.7,10.8,113.7,2.8
	C174.2-5.2,218.2,49.8,225.2,114.3z"/>
</defs>
</svg>
